<mxfile host="app.diagrams.net" agent="Mozilla/5.0 (Windows NT 10.0; Win64; x64) AppleWebKit/537.36 (KHTML, like Gecko) Chrome/138.0.0.0 Safari/537.36" version="28.0.5">
  <diagram id="7gcUSTIZ7YSJ5vT40chW" name="Page-1">
    <mxGraphModel grid="1" page="1" gridSize="10" guides="1" tooltips="1" connect="0" arrows="0" fold="1" pageScale="1" pageWidth="1169" pageHeight="827" background="#ffffff" math="0" shadow="0">
      <root>
        <mxCell id="0" />
        <mxCell id="1" parent="0" />
        <mxCell id="M7SeO1mPTdzSNuAZCHN5-28" value="" style="fillColor=none;rounded=0;labelBackgroundColor=none;fontColor=none;noLabel=1;shadow=0;glass=0;html=1;whiteSpace=wrap;verticalAlign=middle;" vertex="1" parent="1">
          <mxGeometry x="160" y="-731" width="850" height="661" as="geometry" />
        </mxCell>
        <mxCell id="M7SeO1mPTdzSNuAZCHN5-29" value="" style="whiteSpace=wrap;html=1;rounded=0;fillColor=none;" vertex="1" parent="1">
          <mxGeometry x="202.82" y="-677.5" width="767.18" height="407.5" as="geometry" />
        </mxCell>
        <mxCell id="M7SeO1mPTdzSNuAZCHN5-30" value="Azure Cloud - US Central Region" style="image;aspect=fixed;html=1;points=[];align=left;fontSize=17;image=img/lib/azure2/other/Azure_A.svg;labelBackgroundColor=none;labelPosition=right;verticalLabelPosition=middle;verticalAlign=middle;spacing=8;" vertex="1" parent="1">
          <mxGeometry x="160" y="-770" width="31.82" height="30" as="geometry" />
        </mxCell>
        <mxCell id="M7SeO1mPTdzSNuAZCHN5-35" value="Virtual Network - sqlserver-vnet" style="image;aspect=fixed;html=1;points=[];align=left;fontSize=17;image=img/lib/azure2/networking/Virtual_Networks.svg;labelBackgroundColor=none;labelPosition=right;verticalLabelPosition=middle;verticalAlign=middle;spacing=8;" vertex="1" parent="1">
          <mxGeometry x="202.82" y="-713" width="40" height="23.88" as="geometry" />
        </mxCell>
        <mxCell id="M7SeO1mPTdzSNuAZCHN5-36" value="" style="whiteSpace=wrap;html=1;fillColor=none;rounded=0;" vertex="1" parent="1">
          <mxGeometry x="440" y="-550" width="229" height="160" as="geometry" />
        </mxCell>
        <mxCell id="M7SeO1mPTdzSNuAZCHN5-42" value="vm-subnet" style="image;aspect=fixed;html=1;points=[];align=left;fontSize=12;image=img/lib/azure2/networking/Subnet.svg;labelBackgroundColor=none;labelPosition=right;verticalLabelPosition=middle;verticalAlign=middle;spacing=9;" vertex="1" parent="1">
          <mxGeometry x="450" y="-582" width="33.4" height="20" as="geometry" />
        </mxCell>
        <mxCell id="ckLyT5EqBb1HqFQdgZS1-2" value="sqlserver subnet" style="image;aspect=fixed;html=1;points=[];align=left;fontSize=12;image=img/lib/azure2/networking/Subnet.svg;labelBackgroundColor=none;labelPosition=right;verticalLabelPosition=middle;verticalAlign=middle;spacing=9;" vertex="1" parent="1">
          <mxGeometry x="708.8" y="-467" width="33.4" height="20" as="geometry" />
        </mxCell>
        <mxCell id="ckLyT5EqBb1HqFQdgZS1-8" value="adminer-vm" style="image;sketch=0;aspect=fixed;html=1;points=[];align=center;fontSize=12;image=img/lib/mscae/VM_Linux.svg;labelBackgroundColor=none;" vertex="1" parent="1">
          <mxGeometry x="507" y="-505.88" width="78" height="71.76" as="geometry" />
        </mxCell>
        <mxCell id="ckLyT5EqBb1HqFQdgZS1-12" value="Key Vault&lt;div&gt;&quot;vm-credentials&quot; Secret&lt;/div&gt;" style="image;aspect=fixed;html=1;points=[];align=center;fontSize=12;image=img/lib/azure2/security/Key_Vaults.svg;" vertex="1" parent="1">
          <mxGeometry x="291" y="-220" width="68" height="68" as="geometry" />
        </mxCell>
        <mxCell id="AcA3orxnP_secUjvsncz-1" value="Key Vault&lt;div&gt;&quot;sqlserver-credentials&quot; Secret&lt;/div&gt;" style="image;aspect=fixed;html=1;points=[];align=center;fontSize=12;image=img/lib/azure2/security/Key_Vaults.svg;" vertex="1" parent="1">
          <mxGeometry x="536.5" y="-220" width="68" height="68" as="geometry" />
        </mxCell>
        <mxCell id="AcA3orxnP_secUjvsncz-2" value="" style="whiteSpace=wrap;html=1;fillColor=none;rounded=0;" vertex="1" parent="1">
          <mxGeometry x="710.5" y="-440" width="229" height="140" as="geometry" />
        </mxCell>
        <mxCell id="AcA3orxnP_secUjvsncz-5" value="adminer-vm-public-ip" style="image;aspect=fixed;html=1;points=[];align=center;fontSize=12;image=img/lib/azure2/networking/Public_IP_Addresses.svg;" vertex="1" parent="1">
          <mxGeometry x="264" y="-499" width="65" height="52" as="geometry" />
        </mxCell>
        <mxCell id="AcA3orxnP_secUjvsncz-6" value="Web Browser" style="image;aspect=fixed;html=1;points=[];align=center;fontSize=12;image=img/lib/azure2/general/Browser.svg;" vertex="1" parent="1">
          <mxGeometry x="50" y="-499" width="70" height="56" as="geometry" />
        </mxCell>
        <mxCell id="AcA3orxnP_secUjvsncz-7" value="" style="endArrow=classic;startArrow=classic;html=1;rounded=0;" edge="1" parent="1" source="AcA3orxnP_secUjvsncz-6" target="AcA3orxnP_secUjvsncz-5">
          <mxGeometry width="50" height="50" relative="1" as="geometry">
            <mxPoint x="120" y="-553" as="sourcePoint" />
            <mxPoint x="270" y="-550" as="targetPoint" />
          </mxGeometry>
        </mxCell>
        <mxCell id="AcA3orxnP_secUjvsncz-8" value="" style="endArrow=classic;startArrow=classic;html=1;rounded=0;exitX=0.992;exitY=0.55;exitDx=0;exitDy=0;exitPerimeter=0;entryX=-0.002;entryY=0.474;entryDx=0;entryDy=0;entryPerimeter=0;" edge="1" parent="1" source="AcA3orxnP_secUjvsncz-5" target="ckLyT5EqBb1HqFQdgZS1-8">
          <mxGeometry width="50" height="50" relative="1" as="geometry">
            <mxPoint x="560" y="-420" as="sourcePoint" />
            <mxPoint x="610" y="-470" as="targetPoint" />
          </mxGeometry>
        </mxCell>
        <mxCell id="AcA3orxnP_secUjvsncz-9" value="" style="endArrow=classic;startArrow=classic;html=1;rounded=0;" edge="1" parent="1" source="ckLyT5EqBb1HqFQdgZS1-8" target="7GDEbVUlDjQjr0txEtAz-1">
          <mxGeometry width="50" height="50" relative="1" as="geometry">
            <mxPoint x="560" y="-420" as="sourcePoint" />
            <mxPoint x="801" y="-548.9778188539741" as="targetPoint" />
          </mxGeometry>
        </mxCell>
        <mxCell id="AcA3orxnP_secUjvsncz-10" value="internal.sqlserver-zone.local" style="image;aspect=fixed;html=1;points=[];align=center;fontSize=12;image=img/lib/azure2/networking/DNS_Zones.svg;" vertex="1" parent="1">
          <mxGeometry x="804" y="-210" width="64" height="64" as="geometry" />
        </mxCell>
        <mxCell id="7GDEbVUlDjQjr0txEtAz-1" value="sqlserver-instance" style="image;aspect=fixed;html=1;points=[];align=center;fontSize=12;image=img/lib/azure2/databases/SQL_Server.svg;" vertex="1" parent="1">
          <mxGeometry x="792.5" y="-404" width="68" height="68" as="geometry" />
        </mxCell>
        <mxCell id="v7o3tDhMV_Q4naGEWHCX-1" value="" style="whiteSpace=wrap;html=1;fillColor=none;rounded=0;" vertex="1" parent="1">
          <mxGeometry x="710.5" y="-630" width="229" height="140" as="geometry" />
        </mxCell>
        <mxCell id="v7o3tDhMV_Q4naGEWHCX-3" value="sql-mi-subnet" style="image;aspect=fixed;html=1;points=[];align=left;fontSize=12;image=img/lib/azure2/networking/Subnet.svg;labelBackgroundColor=none;labelPosition=right;verticalLabelPosition=middle;verticalAlign=middle;spacing=9;" vertex="1" parent="1">
          <mxGeometry x="710.5" y="-659" width="30" height="17.96" as="geometry" />
        </mxCell>
        <mxCell id="v7o3tDhMV_Q4naGEWHCX-4" value="sqlserver-managed-instance" style="image;aspect=fixed;html=1;points=[];align=center;fontSize=12;image=img/lib/azure2/databases/SQL_Managed_Instance.svg;labelPosition=center;verticalLabelPosition=bottom;verticalAlign=top;" vertex="1" parent="1">
          <mxGeometry x="792.5" y="-602" width="65" height="64" as="geometry" />
        </mxCell>
        <mxCell id="v7o3tDhMV_Q4naGEWHCX-5" value="" style="endArrow=classic;startArrow=classic;html=1;rounded=0;entryX=0.038;entryY=0.594;entryDx=0;entryDy=0;entryPerimeter=0;exitX=0.987;exitY=0.152;exitDx=0;exitDy=0;exitPerimeter=0;" edge="1" parent="1" source="ckLyT5EqBb1HqFQdgZS1-8" target="v7o3tDhMV_Q4naGEWHCX-4">
          <mxGeometry width="50" height="50" relative="1" as="geometry">
            <mxPoint x="560" y="-240" as="sourcePoint" />
            <mxPoint x="610" y="-290" as="targetPoint" />
          </mxGeometry>
        </mxCell>
      </root>
    </mxGraphModel>
  </diagram>
</mxfile>
